<?xml version="1.0" encoding="utf-8"?>
<!-- Generator: Adobe Illustrator 27.3.1, SVG Export Plug-In . SVG Version: 6.00 Build 0)  -->
<svg version="1.1" id="Layer_1" xmlns="http://www.w3.org/2000/svg" xmlns:xlink="http://www.w3.org/1999/xlink" x="0px" y="0px"
	 viewBox="0 0 1159.4 141.4" style="enable-background:new 0 0 1159.4 141.4;" xml:space="preserve">
<style type="text/css">
	.st0{fill:#3F3E82;}
</style>
<g>
	<path d="M3.5,34.8c2.3-4.2,5.6-7.5,9.7-9.8c4.2-2.3,8.9-3.4,14.3-3.4c6.9,0,12.6,1.8,17.2,5.4c4.6,3.6,7.6,8.7,9.1,15.2H35.9
		c-1.5-4.2-4.4-6.3-8.7-6.3c-3.1,0-5.5,1.2-7.4,3.6C18,41.9,17,45.3,17,49.8s0.9,7.9,2.8,10.3c1.8,2.4,4.3,3.6,7.4,3.6
		c4.3,0,7.2-2.1,8.7-6.3h17.9c-1.4,6.4-4.5,11.5-9.1,15.1C40,76.2,34.3,78,27.5,78c-5.4,0-10.1-1.1-14.3-3.4
		c-4.2-2.5-7.4-5.7-9.7-10C1.2,60.4,0,55.4,0,49.7S1.2,39,3.5,34.8z"/>
	<path d="M62.6,34.8c2.1-4.2,5-7.5,8.7-9.8s7.8-3.4,12.3-3.4c3.9,0,7.2,0.8,10.2,2.4c3,1.6,5.2,3.6,6.7,6.2v-7.8h16.8v54.7h-16.8
		v-7.8c-1.6,2.6-3.9,4.6-6.8,6.2s-6.3,2.4-10.2,2.4c-4.4,0-8.5-1.2-12.2-3.5s-6.6-5.6-8.7-9.9s-3.2-9.2-3.2-14.9
		C59.4,44,60.5,39,62.6,34.8z M97,39.8c-2.3-2.4-5.2-3.6-8.5-3.6s-6.2,1.2-8.5,3.6s-3.5,5.7-3.5,9.9s1.2,7.5,3.5,10s5.2,3.7,8.5,3.7
		s6.2-1.2,8.5-3.6c2.3-2.4,3.5-5.7,3.5-9.9S99.3,42.2,97,39.8z"/>
	<path d="M215.6,27.9c4,4.1,6,9.8,6,17.2v32h-16.7V47.3c0-3.5-0.9-6.3-2.8-8.2c-1.9-1.9-4.4-2.9-7.7-2.9s-5.8,1-7.7,2.9
		s-2.8,4.7-2.8,8.2v29.8h-16.7V47.3c0-3.5-0.9-6.3-2.8-8.2c-1.9-1.9-4.4-2.9-7.7-2.9s-5.8,1-7.7,2.9s-2.8,4.7-2.8,8.2v29.8h-16.8
		V22.3h16.8v6.9c1.7-2.3,3.9-4.1,6.7-5.5c2.8-1.4,5.9-2,9.3-2c4.1,0,7.8,0.9,11.1,2.7c3.3,1.8,5.8,4.3,7.6,7.6
		c1.9-3,4.5-5.5,7.8-7.4c3.3-1.9,6.8-2.8,10.7-2.8C206.2,21.7,211.6,23.8,215.6,27.9z"/>
	<path d="M257,23.9c2.9-1.6,6.2-2.4,10.1-2.4c4.5,0,8.6,1.1,12.3,3.4c3.7,2.3,6.6,5.6,8.7,9.8c2.1,4.3,3.2,9.2,3.2,14.8
		s-1.1,10.6-3.2,14.9s-5,7.6-8.7,9.9s-7.8,3.5-12.3,3.5c-3.8,0-7.1-0.8-10.1-2.4c-2.9-1.6-5.2-3.6-6.8-6.1v33.8h-16.8V22.3h16.8v7.8
		C251.9,27.5,254.1,25.4,257,23.9z M270.7,39.7c-2.3-2.4-5.2-3.6-8.6-3.6c-3.3,0-6.2,1.2-8.5,3.6s-3.5,5.7-3.5,9.9s1.2,7.5,3.5,9.9
		s5.2,3.6,8.5,3.6s6.2-1.2,8.5-3.7s3.5-5.8,3.5-10C274.2,45.4,273,42.1,270.7,39.7z"/>
	<path d="M351.5,53.7h-38c0.3,3.4,1.4,6,3.3,7.8s4.3,2.7,7.1,2.7c4.2,0,7.1-1.8,8.7-5.3h17.9c-0.9,3.6-2.6,6.8-5,9.7s-5.4,5.1-9,6.8
		c-3.6,1.6-7.6,2.4-12.1,2.4c-5.4,0-10.1-1.1-14.3-3.4c-4.2-2.3-7.5-5.6-9.8-9.8c-2.4-4.3-3.5-9.2-3.5-14.9s1.2-10.7,3.5-14.9
		s5.6-7.5,9.8-9.8c4.2-2.3,9-3.4,14.4-3.4c5.3,0,10,1.1,14.1,3.3c4.1,2.2,7.4,5.4,9.7,9.5c2.3,4.1,3.5,8.9,3.5,14.4
		C351.8,50.4,351.7,52,351.5,53.7z M334.6,44.4c0-2.9-1-5.2-3-6.9s-4.4-2.5-7.4-2.5c-2.8,0-5.2,0.8-7.1,2.5c-1.9,1.6-3.1,4-3.6,7
		C313.6,44.4,334.6,44.4,334.6,44.4z"/>
	<path d="M384.8,24.3c3-1.7,6.2-2.6,9.8-2.6v17.8H390c-4.2,0-7.3,0.9-9.4,2.7s-3.1,5-3.1,9.5v25.4h-16.8V22.3h16.8v9.1
		C379.4,28.4,381.8,26,384.8,24.3z"/>
	<path d="M427.3,61.4l11.9-39.1H457l-19.4,54.8h-20.7l-19.4-54.8h18L427.3,61.4z"/>
	<path d="M464,34.8c2.1-4.2,5-7.5,8.7-9.8s7.8-3.4,12.3-3.4c3.9,0,7.2,0.8,10.2,2.4c3,1.6,5.2,3.6,6.7,6.2v-7.8h16.8v54.7h-16.8
		v-7.8c-1.6,2.6-3.9,4.6-6.8,6.2s-6.3,2.4-10.2,2.4c-4.5,0-8.5-1.2-12.2-3.5s-6.6-5.6-8.7-9.9s-3.2-9.2-3.2-14.9
		C460.8,44,461.8,39,464,34.8z M498.3,39.8c-2.3-2.4-5.2-3.6-8.5-3.6s-6.2,1.2-8.5,3.6c-2.3,2.4-3.5,5.7-3.5,9.9s1.2,7.5,3.5,10
		s5.2,3.7,8.5,3.7s6.2-1.2,8.5-3.6c2.3-2.4,3.5-5.7,3.5-9.9S500.6,42.2,498.3,39.8z"/>
	<path d="M579.5,27.9c3.8,4.2,5.7,9.9,5.7,17.1v32h-16.7V47.3c0-3.7-1-6.5-2.8-8.5c-1.9-2-4.5-3-7.7-3s-5.8,1-7.7,3
		s-2.8,4.9-2.8,8.5v29.8h-16.8V22.3h16.8v7.3c1.7-2.4,4-4.3,6.9-5.7s6.1-2.1,9.7-2.1C570.6,21.7,575.7,23.8,579.5,27.9z"/>
	<path d="M677.2,36.2h-9v40.9h-16.8V36.2h-6.1v-14h6.1v-1.6c0-6.7,1.9-11.9,5.8-15.4s9.5-5.2,17-5.2c1.2,0,2.2,0,2.8,0.1v14.2
		c-3.2-0.2-5.5,0.3-6.8,1.4s-2,3.1-2,6v0.5h9V36.2L677.2,36.2z"/>
	<path d="M695.6,74.4c-4.3-2.3-7.7-5.6-10.1-9.8c-2.5-4.3-3.7-9.2-3.7-14.9c0-5.6,1.2-10.6,3.7-14.9s5.9-7.6,10.2-9.9
		s9.2-3.4,14.5-3.4c5.4,0,10.2,1.2,14.5,3.4c4.3,2.2,7.7,5.6,10.2,9.9s3.7,9.2,3.7,14.9s-1.3,10.6-3.8,14.9s-6,7.6-10.3,9.9
		c-4.4,2.3-9.2,3.4-14.6,3.4S699.9,76.7,695.6,74.4z M718.2,59.8c2.3-2.4,3.4-5.7,3.4-10.1s-1.1-7.8-3.3-10.1
		c-2.2-2.4-4.9-3.5-8.1-3.5c-3.3,0-6,1.2-8.2,3.5s-3.2,5.7-3.2,10.2c0,4.4,1.1,7.8,3.2,10.1c2.1,2.4,4.8,3.5,8,3.5
		S716,62.2,718.2,59.8z"/>
	<path d="M771.8,24.3c3-1.7,6.2-2.6,9.8-2.6v17.8H777c-4.2,0-7.3,0.9-9.4,2.7s-3.1,5-3.1,9.5v25.4h-16.8V22.3h16.8v9.1
		C766.4,28.4,768.9,26,771.8,24.3z"/>
	<path d="M799.2,75.4c-3.7-1.6-6.7-3.9-8.8-6.7c-2.2-2.8-3.4-6-3.6-9.6h16.6c0.2,1.9,1.1,3.4,2.7,4.6c1.6,1.2,3.5,1.8,5.8,1.8
		c2.1,0,3.7-0.4,4.9-1.2s1.7-1.9,1.7-3.2c0-1.6-0.8-2.7-2.5-3.5c-1.6-0.8-4.3-1.6-8-2.5c-3.9-0.9-7.2-1.9-9.8-2.9s-4.9-2.6-6.8-4.8
		c-1.9-2.2-2.8-5.2-2.8-8.9c0-3.1,0.9-6,2.6-8.6c1.7-2.6,4.3-4.6,7.7-6.1s7.4-2.3,12-2.3c6.9,0,12.3,1.7,16.2,5.1
		c4,3.4,6.2,7.9,6.8,13.6h-15.5c-0.3-1.9-1.1-3.4-2.5-4.5s-3.3-1.7-5.5-1.7c-2,0-3.5,0.4-4.5,1.1c-1,0.8-1.6,1.8-1.6,3.1
		c0,1.6,0.8,2.8,2.5,3.5s4.3,1.6,7.8,2.4c4.1,1,7.4,2.1,9.9,3.1s4.8,2.7,6.7,4.9s2.9,5.3,3,9.1c0,3.2-0.9,6.1-2.7,8.6
		s-4.4,4.5-7.8,5.9s-7.3,2.2-11.7,2.2C807.2,77.9,803,77.1,799.2,75.4z"/>
	<path d="M604.4,75.4c-3.7-1.6-6.7-3.9-8.8-6.7c-2.2-2.8-3.4-6-3.6-9.6h16.6c0.2,1.9,1.1,3.4,2.7,4.6c1.6,1.2,3.5,1.8,5.8,1.8
		c2.1,0,3.7-0.4,4.9-1.2s1.7-1.9,1.7-3.2c0-1.6-0.8-2.7-2.5-3.5c-1.6-0.8-4.3-1.6-8-2.5c-3.9-0.9-7.2-1.9-9.8-2.9s-4.9-2.6-6.8-4.8
		c-1.9-2.2-2.8-5.2-2.8-8.9c0-3.1,0.9-6,2.6-8.6c1.7-2.6,4.3-4.6,7.7-6.1s7.4-2.3,12-2.3c6.9,0,12.3,1.7,16.2,5.1
		c4,3.4,6.2,7.9,6.8,13.6h-15.5c-0.3-1.9-1.1-3.4-2.5-4.5s-3.3-1.7-5.5-1.7c-2,0-3.5,0.4-4.5,1.1c-1,0.8-1.6,1.8-1.6,3.1
		c0,1.6,0.8,2.8,2.5,3.5s4.3,1.6,7.8,2.4c4.1,1,7.4,2.1,9.9,3.1s4.8,2.7,6.7,4.9s2.9,5.3,3,9.1c0,3.2-0.9,6.1-2.7,8.6
		s-4.4,4.5-7.8,5.9s-7.3,2.2-11.7,2.2C612.4,77.9,608.2,77.1,604.4,75.4z"/>
	<path d="M844.3,34.8c2.1-4.2,5-7.5,8.7-9.8s7.8-3.4,12.3-3.4c3.9,0,7.2,0.8,10.2,2.4c3,1.6,5.2,3.6,6.7,6.2v-7.8H899v54.7h-16.8
		v-7.8c-1.6,2.6-3.9,4.6-6.8,6.2c-2.9,1.6-6.3,2.4-10.2,2.4c-4.5,0-8.5-1.2-12.2-3.5s-6.6-5.6-8.7-9.9s-3.2-9.2-3.2-14.9
		C841.2,44,842.2,39,844.3,34.8z M878.7,39.8c-2.3-2.4-5.2-3.6-8.5-3.6s-6.2,1.2-8.5,3.6s-3.5,5.7-3.5,9.9s1.2,7.5,3.5,10
		s5.2,3.7,8.5,3.7s6.2-1.2,8.5-3.6c2.3-2.4,3.5-5.7,3.5-9.9S881,42.2,878.7,39.8z"/>
	<path d="M928,4.4v72.7h-16.8V4.4H928z"/>
	<path d="M991.5,53.7h-38c0.3,3.4,1.4,6,3.3,7.8c1.9,1.8,4.3,2.7,7.1,2.7c4.2,0,7.1-1.8,8.7-5.3h17.9c-0.9,3.6-2.6,6.8-5,9.7
		s-5.4,5.1-9,6.8s-7.6,2.4-12.1,2.4c-5.4,0-10.2-1.1-14.3-3.4c-4.2-2.3-7.5-5.6-9.8-9.8s-3.5-9.2-3.5-14.9s1.2-10.7,3.5-14.9
		s5.6-7.5,9.8-9.8s9-3.4,14.4-3.4c5.3,0,10,1.1,14.1,3.3c4.1,2.2,7.3,5.4,9.7,9.5c2.3,4.1,3.5,8.9,3.5,14.4
		C991.8,50.4,991.7,52,991.5,53.7z M974.6,44.4c0-2.9-1-5.2-3-6.9s-4.4-2.5-7.4-2.5c-2.8,0-5.2,0.8-7.1,2.5c-1.9,1.6-3.1,4-3.6,7
		C953.6,44.4,974.6,44.4,974.6,44.4z"/>
	<path class="st0" d="M1000.6,75.3c-1.9-1.7-2.8-3.9-2.8-6.4c0-2.6,0.9-4.8,2.8-6.6s4.3-2.7,7.2-2.7c2.9,0,5.2,0.9,7.1,2.7
		s2.8,4,2.8,6.6s-0.9,4.7-2.8,6.4c-1.9,1.7-4.2,2.6-7.1,2.6C1004.9,77.9,1002.5,77,1000.6,75.3z"/>
	<path class="st0" d="M1030.6,34.8c2.1-4.2,5-7.5,8.7-9.8s7.8-3.4,12.3-3.4c3.9,0,7.2,0.8,10.2,2.4c3,1.6,5.2,3.6,6.7,6.2v-7.8h16.8
		v54.7h-16.8v-7.8c-1.6,2.6-3.9,4.6-6.8,6.2c-2.9,1.6-6.3,2.4-10.2,2.4c-4.4,0-8.5-1.2-12.2-3.5s-6.6-5.6-8.7-9.9
		c-2.1-4.3-3.2-9.2-3.2-14.9C1027.3,44,1028.4,39,1030.6,34.8z M1064.9,39.8c-2.3-2.4-5.2-3.6-8.5-3.6s-6.2,1.2-8.5,3.6
		s-3.5,5.7-3.5,9.9s1.2,7.5,3.5,10s5.2,3.7,8.5,3.7s6.2-1.2,8.5-3.6c2.3-2.4,3.5-5.7,3.5-9.9S1067.2,42.2,1064.9,39.8z"/>
	<path class="st0" d="M1151.6,22.3v54.8h-16.8v-7.5c-1.7,2.4-4,4.4-6.9,5.8c-2.9,1.5-6.1,2.2-9.7,2.2c-4.2,0-7.9-0.9-11.1-2.8
		s-5.7-4.6-7.5-8.1c-1.8-3.5-2.7-7.7-2.7-12.5v-32h16.7v29.9c0,3.7,0.9,6.5,2.8,8.5c1.9,2,4.4,3,7.7,3s5.9-1,7.8-3
		c1.9-2,2.8-4.9,2.8-8.5V22.3H1151.6z"/>
</g>
<g>
	<path d="M572.7,103.6c1.6-0.7,3-0.9,5-0.9c2.8,0,5,0.9,6.9,2.8s2.5,4.3,2.5,7.3c0,0.9,0,2.1-0.2,3c-0.5,2.5-1.4,5-2.8,7.1
		c-1.4,2.1-3,3.7-4.8,4.6c-2.1,0.9-4.1,1.6-6.2,1.6c-1.8,0-3.4-0.2-4.6-0.9c-1.4-0.7-2.1-1.8-2.8-2.8l-0.7,3.7h-8l6.2-34.6h8
		l-2.3,12.4C570,105.4,571.4,104.3,572.7,103.6z M578.9,114.3c0-1.6-0.5-2.8-1.4-3.7c-0.7-0.7-2.1-1.4-3.4-1.4c-1.6,0-3,0.5-4.3,1.8
		s-2.1,2.8-2.5,4.6c0,0.5-0.2,0.9-0.2,1.6c0,1.6,0.5,2.8,1.4,3.7c0.7,0.7,2.1,1.4,3.4,1.4c1.6,0,3-0.5,4.3-1.8s2.3-2.8,2.5-4.8
		C578.9,115.3,578.9,114.8,578.9,114.3z"/>
	<path d="M600,102.7l3,16.3l8.9-16.3h8.7L597.2,141h-8.5l8.5-13.3l-6.2-25.2h8.9L600,102.7L600,102.7z"/>
	<path d="M673.5,96l-6,32.8h-7.8l3.7-19.7l-10.7,19.7h-6.4l-3.9-19.7l-3.7,19.7h-8l6-32.8h9.4l5,22.7L664.2,96
		C664.4,96,673.5,96,673.5,96z"/>
	<path d="M677.4,108.6c1.4-2.1,3-3.7,4.8-4.6c2.1-0.9,4.1-1.6,6.2-1.6c1.8,0,3.4,0.2,4.6,0.9c1.4,0.7,2.1,1.8,2.8,3l0.7-3.7h8
		l-4.6,25.9h-8l0.7-3.7c-0.9,1.4-2.3,2.3-3.9,3c-1.6,0.7-3.4,0.9-5,0.9c-1.8,0-3.7-0.5-4.8-1.4c-1.6-0.7-2.5-2.1-3.4-3.7
		c-0.7-1.6-1.4-3.4-1.4-5.3c0-0.9,0-2.1,0.2-3C675.4,113.2,676.1,110.7,677.4,108.6z M694.6,114.3c0-1.6-0.5-2.8-1.4-3.7
		c-0.7-0.7-2.1-1.4-3.4-1.4c-1.6,0-3,0.5-4.3,1.8c-1.4,0.9-2.1,2.8-2.5,4.6c0,0.5-0.2,0.9-0.2,1.6c0,1.6,0.5,2.8,1.4,3.7
		c0.7,0.7,2.1,1.4,3.4,1.4c1.6,0,3-0.5,4.3-1.8s2.1-2.8,2.5-4.6C694.4,115.3,694.6,114.8,694.6,114.3z"/>
	<path d="M722.1,103.8c1.6-0.7,3.4-1.4,4.8-1.4l-1.6,8.5H723c-2.1,0-3.7,0.5-4.6,1.4c-1.4,0.7-1.8,2.3-2.3,4.6l-2.1,11.9h-8
		l4.6-26.1h8l-0.7,4.6C719.1,106.1,720.7,104.7,722.1,103.8z"/>
	<path d="M743.9,115.7l8.7,13.1h-10.1l-6.2-11l-1.8,11h-8l6.2-34.6h8l-3.4,19.2l9.6-10.5H757L743.9,115.7z"/>
	<path d="M780.5,105.2c2.1,1.8,3,4.3,3,7.3c0,0.9,0,2.1-0.2,2.8c0,0.7-0.2,1.6-0.5,2.3h-18.1c0,0.2,0,0.5,0,0.7c0,1.4,0.2,2.3,0.9,3
		s1.8,0.9,3,0.9c2.1,0,3.7-0.7,4.6-2.5h8.5c-0.9,2.5-3,4.8-5.3,6.4c-2.5,1.8-5.3,2.5-8.5,2.5c-3.4,0-6.2-0.9-8.2-2.8s-3-4.3-3-7.6
		c0-0.9,0-2.1,0.2-3c0.5-2.8,1.6-5,2.8-7.1c1.6-2.1,3.4-3.7,5.3-4.6c2.3-0.9,4.6-1.6,7.1-1.6C775.7,102.4,778.5,103.3,780.5,105.2z
		 M775.5,112.7c0-1.4-0.5-2.3-1.4-2.8c-0.7-0.7-1.8-0.9-3-0.9c-1.4,0-2.5,0.5-3.7,1.4c-0.9,0.7-1.8,2.1-2.3,3.7h10.1
		C775.5,113.2,775.5,113,775.5,112.7z"/>
	<path d="M796.3,119.8c0,0.2,0,0.2,0,0.5c0,0.5,0.2,0.9,0.5,1.4c0.2,0.2,0.7,0.2,1.6,0.2h2.8l-1.4,6.9h-4.1c-5,0-8-2.3-8-6.6
		c0-0.7,0-1.6,0.2-2.5l1.8-10.6h-3l1.4-6.6h3l0.9-6.4h8l-0.9,6.4h5l-1.4,6.6h-5L796.3,119.8z"/>
	<path d="M820.6,103.6c1.6-0.7,3-0.9,5-0.9c2.8,0,5,0.9,6.9,2.8s2.5,4.3,2.5,7.3c0,0.9,0,2.1-0.2,3c-0.5,2.5-1.4,5-2.8,7.1
		c-1.4,2.1-3,3.7-4.8,4.6c-2.1,0.9-4.1,1.6-6.2,1.6c-1.8,0-3.4-0.2-4.6-0.9c-1.4-0.7-2.1-1.8-2.8-2.8l-2.8,16h-8l6.9-38.7h8
		l-0.7,3.7C817.9,105.4,819.3,104.3,820.6,103.6z M826.8,114.3c0-1.6-0.5-2.8-1.4-3.7c-0.7-0.7-2.1-1.4-3.4-1.4
		c-1.6,0-3,0.5-4.3,1.8s-2.1,2.8-2.5,4.6c0,0.5-0.2,0.9-0.2,1.6c0,1.6,0.5,2.8,1.4,3.7c0.7,0.7,2.1,1.4,3.4,1.4c1.6,0,3-0.5,4.3-1.8
		s2.3-2.8,2.5-4.8C826.8,115.3,826.8,114.8,826.8,114.3z"/>
	<path d="M851.1,94.4l-6.2,34.6h-8l6.2-34.6C843.1,94.4,851.1,94.4,851.1,94.4z"/>
	<path d="M855,108.6c1.4-2.1,3-3.7,4.8-4.6c2.1-0.9,4.1-1.6,6.2-1.6c1.8,0,3.4,0.2,4.6,0.9c1.4,0.7,2.1,1.8,2.8,3l0.7-3.7h8
		l-4.6,26.1h-8l0.7-3.7c-0.9,1.4-2.3,2.3-3.9,3c-1.6,0.7-3.4,0.9-5,0.9c-1.8,0-3.7-0.5-4.8-1.4c-1.6-0.7-2.5-2.1-3.4-3.7
		c-0.7-1.6-1.4-3.4-1.4-5.3c0-0.9,0-2.1,0.2-3C852.7,113.2,853.4,110.7,855,108.6z M871.9,114.3c0-1.6-0.5-2.8-1.4-3.7
		c-0.7-0.7-2.1-1.4-3.4-1.4c-1.6,0-3,0.5-4.3,1.8c-1.4,0.9-2.1,2.8-2.5,4.6c0,0.5-0.2,0.9-0.2,1.6c0,1.6,0.5,2.8,1.4,3.7
		c0.7,0.7,2.1,1.4,3.4,1.4c1.6,0,3-0.5,4.3-1.8s2.1-2.8,2.5-4.6C871.9,115.3,871.9,114.8,871.9,114.3z"/>
	<path d="M887.3,108.6c1.6-2.1,3.4-3.7,5.3-4.6c2.1-0.9,4.6-1.6,7.1-1.6c3.4,0,6,0.7,7.6,2.5c1.8,1.8,2.8,4.1,3,7.1h-8.5
		c-0.2-2.1-1.6-3-3.7-3c-1.6,0-2.8,0.5-3.9,1.8c-0.9,0.9-1.8,2.8-2.1,4.8c0,0.7-0.2,1.4-0.2,2.1c0,1.6,0.2,2.5,0.9,3.4
		c0.7,0.7,1.6,1.4,2.8,1.4c2.1,0,3.7-0.9,4.6-3h8.5c-1.4,3-3,5.3-5.7,7.1c-2.5,1.8-5.3,2.5-8.7,2.5s-6.2-0.9-8-2.8
		c-2.1-1.8-3-4.3-3-7.6c0-0.9,0-2.1,0.2-3C885,113.2,885.7,110.7,887.3,108.6z"/>
	<path d="M936.5,105.2c2.1,1.8,3,4.3,3,7.3c0,0.9,0,2.1-0.2,2.8c0,0.7-0.2,1.6-0.5,2.3h-18.1c0,0.2,0,0.5,0,0.7c0,1.4,0.2,2.3,0.9,3
		c0.7,0.7,1.8,0.9,3,0.9c2.1,0,3.7-0.7,4.6-2.5h8.5c-0.9,2.5-3,4.8-5.3,6.4c-2.5,1.8-5.3,2.5-8.5,2.5c-3.4,0-6.2-0.9-8.2-2.8
		s-3-4.3-3-7.6c0-0.9,0-2.1,0.2-3c0.5-2.8,1.6-5,2.8-7.1c1.6-2.1,3.4-3.7,5.3-4.6c2.3-0.9,4.6-1.6,7.1-1.6
		C932,102.4,934.7,103.3,936.5,105.2z M931.7,112.7c0-1.4-0.5-2.3-1.4-2.8c-0.7-0.7-1.8-0.9-3-0.9c-1.4,0-2.5,0.5-3.7,1.4
		c-0.9,0.7-1.8,2.1-2.3,3.7h10.1C931.7,113.2,931.7,113,931.7,112.7z"/>
	<path d="M982.4,128.8h-8l-9.6-20.2l-3.7,20.2h-8l6-32.8h8l9.6,20.4l3.7-20.4h8L982.4,128.8z"/>
	<path d="M1012.8,105.2c2.1,1.8,3,4.3,3,7.3c0,0.9,0,2.1-0.2,2.8c0,0.7-0.2,1.6-0.5,2.3H997c0,0.2,0,0.5,0,0.7c0,1.4,0.2,2.3,0.9,3
		c0.7,0.7,1.8,0.9,3,0.9c2.1,0,3.7-0.7,4.6-2.5h8.5c-0.9,2.5-3,4.8-5.3,6.4c-2.5,1.8-5.3,2.5-8.5,2.5c-3.4,0-6.2-0.9-8.2-2.8
		s-3-4.3-3-7.6c0-0.9,0-2.1,0.2-3c0.5-2.8,1.6-5,2.8-7.1c1.6-2.1,3.4-3.7,5.3-4.6c2.3-0.9,4.6-1.6,7.1-1.6
		C1008.3,102.4,1010.8,103.3,1012.8,105.2z M1008,112.7c0-1.4-0.5-2.3-1.4-2.8c-0.7-0.7-1.8-0.9-3-0.9c-1.4,0-2.5,0.5-3.7,1.4
		c-0.9,0.7-1.8,2.1-2.3,3.7h10.1C1007.6,113.2,1008,113,1008,112.7z"/>
	<path d="M1028.6,119.8c0,0.2,0,0.2,0,0.5c0,0.5,0.2,0.9,0.5,1.4c0.2,0.2,0.7,0.2,1.6,0.2h2.8l-1.4,6.9h-4.1c-5,0-8-2.3-8-6.6
		c0-0.7,0-1.6,0.2-2.5l1.8-10.5h-3l1.4-6.6h3l0.9-6.4h8l-0.9,6.4h5l-1.4,6.6h-5L1028.6,119.8z"/>
	<path d="M1079.2,102.7l-11.7,26.1h-8.9l-0.9-16.9l-7.1,16.9h-8.7l-2.5-26.1h8l0.2,18.8l7.6-18.8h8.5l1.4,18.8l6.9-18.8
		C1071.9,102.7,1079.2,102.7,1079.2,102.7z"/>
	<path d="M1084.1,127.9c-1.8-0.9-3-2.3-4.1-3.9c-0.9-1.6-1.6-3.7-1.6-5.7c0-3,0.7-5.7,2.1-8.2c1.4-2.5,3.4-4.3,6-5.7
		c2.5-1.4,5-2.1,8.2-2.1c2.3,0,4.3,0.5,6,1.4c1.8,0.9,3,2.3,4.1,3.9c0.9,1.6,1.6,3.7,1.6,5.7c0,3-0.7,5.7-2.1,8.2
		c-1.6,2.3-3.4,4.3-6,5.7c-2.6,1.4-5,2.1-8.2,2.1C1088,129.5,1085.9,128.8,1084.1,127.9z M1094.9,121.2c0.9-0.7,1.8-1.8,2.5-3
		c0.5-1.4,0.7-2.5,0.7-3.9c0-1.6-0.5-2.8-1.4-3.7c-0.7-0.7-1.8-1.4-3-1.4c-1.4,0-2.5,0.5-3.7,1.4c-0.9,0.7-1.8,1.8-2.3,3
		c-0.5,1.4-0.7,2.5-0.7,4.1s0.5,2.8,1.4,3.7c0.7,0.7,1.8,1.4,3,1.4C1092.6,122.4,1093.9,121.9,1094.9,121.2z"/>
	<path d="M1124.4,103.8c1.6-0.7,3.4-1.4,4.8-1.4l-1.6,8.5h-2.3c-2.1,0-3.7,0.5-4.6,1.4c-1.4,0.7-1.8,2.3-2.3,4.6l-2.1,11.9h-8
		l4.6-26.1h8l-0.7,4.6C1121.4,106.1,1122.8,104.7,1124.4,103.8z"/>
	<path d="M1146.4,115.7l8.7,13.1h-10.1l-6.2-11l-1.8,11h-8l6.2-34.6h8l-3.4,19.2l9.6-10.5h10.1L1146.4,115.7z"/>
</g>
</svg>
